<?xml version="1.0" encoding="utf-8"?>
<!-- Generator: Adobe Illustrator 16.0.0, SVG Export Plug-In . SVG Version: 6.00 Build 0)  -->
<!DOCTYPE svg PUBLIC "-//W3C//DTD SVG 1.1//EN" "http://www.w3.org/Graphics/SVG/1.1/DTD/svg11.dtd">
<svg version="1.1" id="Layer_1" xmlns="http://www.w3.org/2000/svg" xmlns:xlink="http://www.w3.org/1999/xlink" x="0px" y="0px"
	 width="50px" height="50px" viewBox="-315.5 104.5 50 50" enable-background="new -315.5 104.5 50 50" xml:space="preserve">
<path d="M-283.271,131.941c0,3.217-2.617,5.834-5.834,5.834s-5.833-2.617-5.833-5.834s2.616-5.834,5.833-5.834
	S-283.271,128.725-283.271,131.941z M-271.018,123.656v16.57c0,2.209-1.791,4-4,4h-28.174c-2.209,0-4-1.791-4-4v-16.57
	c0-2.209,1.791-4,4-4h4.92v-1.383c0-1.932,1.566-3.5,3.5-3.5h11.334c1.933,0,3.5,1.568,3.5,3.5v1.383h4.92
	C-272.809,119.656-271.018,121.447-271.018,123.656z M-280.271,131.941c0-4.871-3.963-8.834-8.834-8.834
	c-4.87,0-8.833,3.963-8.833,8.834s3.963,8.834,8.833,8.834C-284.234,140.775-280.271,136.813-280.271,131.941z"/>
</svg>
