<?xml version="1.0" encoding="utf-8"?>
<!-- Generator: Adobe Illustrator 16.0.0, SVG Export Plug-In . SVG Version: 6.00 Build 0)  -->
<!DOCTYPE svg PUBLIC "-//W3C//DTD SVG 1.1//EN" "http://www.w3.org/Graphics/SVG/1.1/DTD/svg11.dtd">
<svg version="1.1" id="Layer_1" xmlns="http://www.w3.org/2000/svg" xmlns:xlink="http://www.w3.org/1999/xlink" x="0px" y="0px"
	 width="50px" height="50px" viewBox="-105.5 -315.5 50 50" enable-background="new -105.5 -315.5 50 50" xml:space="preserve">
<path d="M-70.616-291.089c-0.918,0.594-1.527,1.622-1.527,2.796c0,0.569,0.156,1.097,0.406,1.565
	c-2.795,3.112-6.555,5.337-10.814,6.195c-0.594-0.742-1.49-1.228-2.51-1.253c-0.777-2.079-1.227-4.313-1.248-6.65
	c-0.047-4.732,1.592-9.088,4.336-12.526c0.316,0.1,0.646,0.169,0.996,0.169c0.842,0,1.604-0.323,2.189-0.839
	C-74.976-299.182-72.048-295.475-70.616-291.089z M-77.644-304.127c0,0.273-0.043,0.535-0.105,0.79
	c4.24,2.716,7.488,6.839,9.057,11.722c0.057,0.003,0.111,0.013,0.168,0.018c1.219-2.602,1.91-5.496,1.881-8.555
	c-0.002-0.188-0.016-0.374-0.021-0.561c-2.316-2.748-5.561-4.678-9.248-5.327c-0.633,0.346-1.24,0.73-1.83,1.138
	C-77.685-304.652-77.644-304.396-77.644-304.127z M-86.985-281.236c-0.818-2.251-1.301-4.66-1.324-7.18
	c-0.051-5.166,1.717-9.926,4.691-13.697c-0.42-0.55-0.678-1.227-0.688-1.97c-0.549-0.149-1.104-0.281-1.67-0.385
	c-4.957,2.63-8.336,7.839-8.336,13.841c0,3.815,1.367,7.31,3.633,10.026c0.883,0.192,1.785,0.327,2.703,0.401
	C-87.722-280.611-87.39-280.969-86.985-281.236z M-64.757-297.864c-0.24,2.491-0.9,4.861-1.906,7.041
	c0.719,0.611,1.186,1.512,1.186,2.53c0,1.432-0.908,2.643-2.176,3.114c0,0.073,0.01,0.146,0.01,0.219
	c0,2.207-0.336,4.335-0.949,6.344c3.43-2.874,5.615-7.186,5.615-12.011C-62.978-293.239-63.626-295.698-64.757-297.864z
	 M-70.317-285.335c-2.998,3.312-6.988,5.699-11.512,6.686c0.002,0.063,0.018,0.124,0.018,0.189c0,0.629-0.184,1.211-0.486,1.713
	c0.418,0.555,0.863,1.089,1.334,1.597c0.76,0.112,1.529,0.19,2.32,0.19c2.59,0,5.027-0.64,7.18-1.752
	c1.156-2.516,1.82-5.303,1.82-8.248c0-0.041-0.006-0.079-0.006-0.119C-69.884-285.141-70.106-285.228-70.317-285.335z"/>
</svg>
