<!--?xml version="1.0" encoding="utf-8"?-->
<svg version="1.1" id="test" xmlns="http://www.w3.org/2000/svg" xmlns:xlink="http://www.w3.org/1999/xlink" x="0px" y="0px"
 width="128px" height="128px" viewBox="0 0 128 128" enable-background="new 0 0 128 128" xml:space="preserve">
 <g>
 <path fill-rule="evenodd" clip-rule="evenodd" fill="#215CAA" d="M12.576,72.288c0-29.2,23.67-52.871,52.869-52.871 s52.869,23.671,52.869,52.871c0,29.197-23.67,52.869-52.869,52.869S12.576,101.485,12.576,72.288L12.576,72.288z M19.111,72.288 c0,25.588,20.744,46.332,46.334,46.332c25.589,0,46.334-20.744,46.334-46.332c0-25.592-20.745-46.335-46.334-46.335 C39.855,25.953,19.111,46.696,19.111,72.288L19.111,72.288z"></path>
 <path fill="#215CAA" d="M49.97,19.149c0-8.547,6.929-15.476,15.475-15.476c8.548,0,15.477,6.929,15.477,15.476 s-6.929,15.476-15.477,15.476C56.898,34.625,49.97,27.696,49.97,19.149L49.97,19.149z"></path>
 <path fill-rule="evenodd" clip-rule="evenodd" fill="#215CAA" d="M96.714,93.507c0-8.271,6.705-14.977,14.977-14.977 c8.271,0,14.977,6.705,14.977,14.977s-6.706,14.977-14.977,14.977C103.419,108.483,96.714,101.778,96.714,93.507L96.714,93.507z"></path><g><path fill="#215CAA" d="M111.69,80.198c7.339,0,13.31,5.97,13.31,13.309s-5.971,13.31-13.31,13.31s-13.31-5.971-13.31-13.31 S104.352,80.198,111.69,80.198 M111.69,77.198c-9.008,0-16.31,7.301-16.31,16.309s7.302,16.31,16.31,16.31 c9.007,0,16.31-7.302,16.31-16.31S120.697,77.198,111.69,77.198L111.69,77.198z"></path>
 </g>
 <path fill-rule="evenodd" clip-rule="evenodd" fill="#215CAA" d="M1.334,92.733c0-8.27,6.703-14.975,14.975-14.975 s14.975,6.705,14.975,14.975c0,8.271-6.703,14.975-14.975,14.975S1.334,101.005,1.334,92.733L1.334,92.733z"></path>
 <g>
 <path fill="#215CAA" d="M16.309,79.425c7.338,0,13.309,5.97,13.309,13.309s-5.97,13.309-13.309,13.309S3,100.072,3,92.733 S8.97,79.425,16.309,79.425 M16.309,76.425C7.301,76.425,0,83.728,0,92.733c0,9.008,7.301,16.309,16.309,16.309 s16.309-7.301,16.309-16.309C32.617,83.728,25.316,76.425,16.309,76.425L16.309,76.425z"></path>
 </g>
 <g>
 <path fill="#215CAA" d="M65.477,5.843c7.338,0,13.309,5.97,13.309,13.309S72.814,32.46,65.477,32.46 c-7.338,0-13.309-5.97-13.309-13.309S58.138,5.843,65.477,5.843 M65.477,2.843c-9.008,0-16.309,7.302-16.309,16.309 c0,9.008,7.301,16.309,16.309,16.309s16.309-7.301,16.309-16.309C81.785,10.145,74.484,2.843,65.477,2.843L65.477,2.843z"></path></g></g><path fill="#7A9DD1" d="M55.088,72.267c0-5.212,4.228-9.438,9.438-9.438c5.214,0,9.438,4.227,9.438,9.438s-4.225,9.439-9.438,9.439 C59.315,81.706,55.088,77.479,55.088,72.267L55.088,72.267z"></path><path fill="#7A9DD1" d="M81.717,56.826c0,0-0.084-0.208-0.156-0.287c-0.246-0.366-0.561-0.681-0.926-0.927 c-4.185-4.028-9.84-6.538-16.107-6.538c-10.563,0-19.468,7.037-22.322,16.674h-6.488v6.563h5.518h6.764 c0.032-9.103,7.419-16.473,16.529-16.473c4.771,0,9.059,2.033,12.075,5.267c0,0,0.781,0.698,2.149,0.698 c1.869,0,3.383-1.515,3.383-3.382C82.135,57.841,81.975,57.304,81.717,56.826z"></path><path fill="#7A9DD1" d="M47.729,87.747c0,0,0.084,0.209,0.156,0.287c0.246,0.367,0.561,0.682,0.926,0.927 c4.185,4.028,9.84,6.538,16.107,6.538c10.563,0,19.468-7.037,22.322-16.674h6.488v-6.563h-5.518h-6.764 c-0.033,9.103-7.419,16.474-16.529,16.474c-4.771,0-9.059-2.035-12.075-5.27c0,0-0.781-0.696-2.149-0.696 c-1.869,0-3.382,1.515-3.382,3.382C47.312,86.733,47.471,87.271,47.729,87.747z"></path></svg>